<svg xmlns="http://www.w3.org/2000/svg" width="64" height="72" viewBox="0 0 64 72">
  <!-- cape -->
  <path d="M20 30 L12 58 L28 54 Z" fill="#c0392b" stroke="#6e1d14" stroke-width="2" stroke-linejoin="round"/>
  <!-- legs -->
  <rect x="23" y="52" width="8" height="14" rx="2" fill="#3b4a6b" stroke="#1c2438" stroke-width="2"/>
  <rect x="35" y="50" width="8" height="12" rx="2" fill="#3b4a6b" stroke="#1c2438" stroke-width="2"/>
  <rect x="21" y="64" width="12" height="6" rx="2" fill="#5a3a1e" stroke="#2e1c0c" stroke-width="2"/>
  <rect x="34" y="60" width="12" height="6" rx="2" fill="#5a3a1e" stroke="#2e1c0c" stroke-width="2"/>
  <!-- body armor -->
  <rect x="20" y="30" width="26" height="24" rx="6" fill="#aab4c8" stroke="#4a5368" stroke-width="2"/>
  <rect x="20" y="44" width="26" height="5" fill="#8a5a2c" stroke="#4a2e12" stroke-width="1.5"/>
  <!-- sword -->
  <rect x="52" y="14" width="5" height="26" fill="#e6edf7" stroke="#59627a" stroke-width="2"/>
  <rect x="47" y="38" width="15" height="4" rx="1" fill="#e0b040" stroke="#7a5a12" stroke-width="1.5"/>
  <circle cx="50" cy="44" r="5" fill="#f0c9a0" stroke="#8a5a3a" stroke-width="2"/>
  <!-- shield -->
  <path d="M6 34 L22 34 L22 46 C22 52 14 56 14 56 C14 56 6 52 6 46 Z" fill="#3f7fd0" stroke="#1d3f70" stroke-width="2" stroke-linejoin="round"/>
  <path d="M14 38 L14 51 M9 44 L19 44" stroke="#f2d75c" stroke-width="2.5"/>
  <!-- head + helmet -->
  <circle cx="33" cy="18" r="13" fill="#f0c9a0" stroke="#8a5a3a" stroke-width="2"/>
  <path d="M19 18 C19 6 26 2 33 2 C40 2 47 6 47 18 L42 18 L42 12 L24 12 L24 18 Z" fill="#aab4c8" stroke="#4a5368" stroke-width="2" stroke-linejoin="round"/>
  <path d="M33 2 L33 -1" stroke="#c0392b" stroke-width="4" stroke-linecap="round"/>
  <circle cx="29" cy="19" r="2" fill="#1c2438"/>
  <circle cx="38" cy="19" r="2" fill="#1c2438"/>
  <path d="M30 25 C32 27 35 27 37 25" fill="none" stroke="#8a3a2a" stroke-width="1.8" stroke-linecap="round"/>
</svg>
